<svg id="Layer_1" data-name="Layer 1" xmlns="http://www.w3.org/2000/svg" viewBox="0 0 291.71 291.71"><defs><style>.cls-1{fill:#c7c6c5;}.cls-2{fill:#4b4b4d;}</style></defs><path class="cls-1" d="M420.36,357.58v39.77A1.35,1.35,0,0,1,419,398.7H405.92a1.35,1.35,0,0,1-1.35-1.35V315a1.34,1.34,0,0,0-1.34-1.35H320.88a1.35,1.35,0,0,1-1.35-1.35V299.22a1.35,1.35,0,0,1,1.35-1.34h39.78a1.35,1.35,0,0,0,1.34-1.35V280a1.34,1.34,0,0,0-1.34-1.35H234.86a1.35,1.35,0,0,0-1.35,1.35v16.56a1.36,1.36,0,0,0,1.35,1.35h39.77a1.34,1.34,0,0,1,1.35,1.34v13.09a1.34,1.34,0,0,1-1.35,1.35H192.29a1.34,1.34,0,0,0-1.35,1.35v82.34a1.34,1.34,0,0,1-1.35,1.35H176.51a1.34,1.34,0,0,1-1.35-1.35V357.58a1.34,1.34,0,0,0-1.35-1.35H157.25a1.35,1.35,0,0,0-1.35,1.35V483.37a1.35,1.35,0,0,0,1.35,1.35h16.56a1.34,1.34,0,0,0,1.35-1.35V443.6a1.34,1.34,0,0,1,1.35-1.35h13.08a1.34,1.34,0,0,1,1.35,1.35v82.34a1.34,1.34,0,0,0,1.35,1.35h82.34a1.34,1.34,0,0,1,1.35,1.35v13.09a1.34,1.34,0,0,1-1.35,1.34H234.86a1.36,1.36,0,0,0-1.35,1.35V561a1.35,1.35,0,0,0,1.35,1.35h125.8A1.34,1.34,0,0,0,362,561V544.42a1.35,1.35,0,0,0-1.34-1.35H320.88a1.35,1.35,0,0,1-1.35-1.34V528.64a1.35,1.35,0,0,1,1.35-1.35h82.35a1.34,1.34,0,0,0,1.34-1.35V443.6a1.35,1.35,0,0,1,1.35-1.35H419a1.35,1.35,0,0,1,1.35,1.35v39.77a1.34,1.34,0,0,0,1.34,1.35h16.57a1.34,1.34,0,0,0,1.34-1.35V357.58a1.34,1.34,0,0,0-1.34-1.35H421.7A1.34,1.34,0,0,0,420.36,357.58Z" transform="translate(-151.9 -274.62)"/><path class="cls-2" d="M438.27,352.23H421.7a5.35,5.35,0,0,0-5.34,5.35V394.7h-7.79V315a5.35,5.35,0,0,0-5.34-5.34h-79.7v-7.78h37.13a5.35,5.35,0,0,0,5.34-5.35V280a5.35,5.35,0,0,0-5.34-5.35H234.86a5.36,5.36,0,0,0-5.35,5.35v16.56a5.36,5.36,0,0,0,5.35,5.35H272v7.78H192.29a5.35,5.35,0,0,0-5.35,5.34v79.7h-7.78V357.58a5.36,5.36,0,0,0-5.35-5.35H157.25a5.36,5.36,0,0,0-5.35,5.35V483.37a5.36,5.36,0,0,0,5.35,5.35h16.56a5.36,5.36,0,0,0,5.35-5.35V446.25h7.78v79.69a5.36,5.36,0,0,0,5.35,5.35H272v7.78H234.86a5.36,5.36,0,0,0-5.35,5.35V561a5.36,5.36,0,0,0,5.35,5.35h125.8A5.35,5.35,0,0,0,366,561V544.42a5.35,5.35,0,0,0-5.34-5.35H323.53v-7.78h79.7a5.35,5.35,0,0,0,5.34-5.35V446.25h7.79v37.12a5.35,5.35,0,0,0,5.34,5.35h16.57a5.35,5.35,0,0,0,5.34-5.35V357.58A5.35,5.35,0,0,0,438.27,352.23Zm-2.66,128.49H424.36V443.6a5.36,5.36,0,0,0-5.35-5.35H405.92a5.36,5.36,0,0,0-5.35,5.35v79.69H320.88a5.36,5.36,0,0,0-5.35,5.35v13.09a5.35,5.35,0,0,0,5.35,5.34H358v11.26H237.51V547.07h37.12a5.35,5.35,0,0,0,5.35-5.34V528.64a5.36,5.36,0,0,0-5.35-5.35H194.94V443.6a5.36,5.36,0,0,0-5.35-5.35H176.51a5.36,5.36,0,0,0-5.35,5.35v37.12H159.9V360.23h11.26v37.12a5.36,5.36,0,0,0,5.35,5.35h13.08a5.36,5.36,0,0,0,5.35-5.35V317.66h79.69a5.36,5.36,0,0,0,5.35-5.35V299.22a5.35,5.35,0,0,0-5.35-5.34H237.51V282.62H358v11.26H320.88a5.35,5.35,0,0,0-5.35,5.34v13.09a5.36,5.36,0,0,0,5.35,5.35h79.69v79.69a5.36,5.36,0,0,0,5.35,5.35H419a5.36,5.36,0,0,0,5.35-5.35V360.23h11.25Z" transform="translate(-151.9 -274.62)"/><path class="cls-2" d="M351.32,398.27c1.43-2.23,2.78-4.43,4-6.58,9.32-16.39,11.14-28.16,5.26-34s-17.65-4.06-34,5.27c-2.15,1.22-4.35,2.56-6.58,4-4.51-20.71-12-35.28-22.2-35.28s-17.69,14.56-22.2,35.27c-17.83-11.45-33.39-16.48-40.62-9.25s-2.21,22.8,9.24,40.63c-20.71,4.51-35.26,12-35.26,22.19s14.55,17.69,35.26,22.2c-11.45,17.83-16.48,33.39-9.24,40.63,2.31,2.31,5.47,3.37,9.28,3.37,8.13,0,19.21-4.82,31.34-12.61,4.51,20.7,12,35.26,22.2,35.26S315.45,494.75,320,474c2.23,1.43,4.43,2.77,6.58,4,10.1,5.75,18.45,8.64,24.74,8.64,3.92,0,7-1.12,9.3-3.37,5.88-5.88,4.06-17.65-5.26-34-1.22-2.15-2.57-4.35-4-6.58,20.71-4.51,35.28-12,35.28-22.21S372,402.78,351.32,398.27Zm-20.82-28.4c9.59-5.46,16.62-7.64,20.76-7.64a5.12,5.12,0,0,1,3.66,1.08c2.33,2.33,1.2,10.78-6.56,24.43-1.63,2.88-3.49,5.86-5.53,8.9-6-1-12.33-1.79-18.87-2.37-.57-6.54-1.37-12.89-2.37-18.87C324.64,373.37,327.62,371.51,330.5,369.87Zm-32.74,69.74a19.14,19.14,0,1,1,19.13-19.14A19.16,19.16,0,0,1,297.76,439.61ZM309,393.36q-2.53-2.36-5.1-4.64,5.26-4.37,10.41-8.17c.62,4.11,1.15,8.5,1.58,13.13Q312.45,393.49,309,393.36Zm-22.45,0q-3.46.12-6.89.32c.43-4.63,1-9,1.59-13.11q5,3.69,10.39,8.15Q289.07,391,286.53,393.36Zm-15.89,15.89c-1.57,1.69-3.12,3.39-4.63,5.09q-4.45-5.37-8.16-10.4Q264,403,271,402.36,270.76,405.78,270.64,409.25Zm0,22.45q.12,3.46.33,6.89-6.95-.64-13.12-1.58,3.7-5,8.16-10.41C267.52,428.31,269.07,430,270.64,431.7Zm15.89,15.89q2.54,2.37,5.09,4.64-5.37,4.45-10.39,8.15c-.62-4.11-1.16-8.48-1.59-13.11Q283.06,447.47,286.53,447.59Zm22.45,0q3.47-.12,6.89-.32c-.43,4.63-1,9-1.58,13.13-3.42-2.53-6.9-5.26-10.4-8.17C305.59,450.71,307.3,449.16,309,447.59Zm15.89-15.89c1.59-1.69,3.13-3.39,4.64-5.09,2.91,3.5,5.65,7,8.17,10.39-4.11.62-8.5,1.16-13.13,1.59Q324.75,435.17,324.87,431.7Zm0-22.45q-.12-3.47-.32-6.89c4.63.43,9,1,13.13,1.59-2.52,3.41-5.26,6.89-8.17,10.39C328,412.64,326.46,410.94,324.87,409.25Zm-27.11-69.62c4.81,0,10.95,11.76,15,32.15-4.9,3.48-9.93,7.39-15,11.64-5-4.21-10.06-8.13-15-11.64C286.81,351.39,293,339.63,297.76,339.63Zm-57.17,23.68a5.21,5.21,0,0,1,3.76-1.18c5.71,0,16.27,4.41,29.57,13.3-1,6-1.79,12.31-2.36,18.84-6.54.58-12.88,1.37-18.85,2.37C241.17,379.36,237.19,366.71,240.59,363.31Zm-23.67,57.16c0-4.81,11.76-10.94,32.14-15,3.51,4.93,7.43,10,11.65,15-4.22,5-8.14,10.07-11.65,15C228.68,431.42,216.92,425.29,216.92,420.47Zm23.67,57.17c-3.4-3.4.58-16.05,12.12-33.33,6,1,12.31,1.79,18.85,2.37.57,6.53,1.36,12.87,2.36,18.84C256.65,477.06,244,481,240.59,477.64Zm57.17,23.68c-4.81,0-10.95-11.76-15-32.14,4.93-3.51,10-7.43,15-11.65,5.08,4.25,10.11,8.16,15,11.64C308.71,489.55,302.57,501.32,297.76,501.32Zm50.6-48.11c7.76,13.65,8.89,22.1,6.56,24.43s-10.78,1.2-24.42-6.56c-2.88-1.64-5.86-3.5-8.91-5.53,1-6,1.8-12.33,2.37-18.87,6.54-.58,12.89-1.37,18.87-2.37C344.87,447.35,346.73,450.33,348.36,453.21Zm-1.91-17.73c-3.48-4.9-7.38-9.93-11.64-15,4.26-5.07,8.16-10.1,11.64-15,20.39,4.06,32.15,10.19,32.15,15S366.84,431.42,346.45,435.48Z" transform="translate(-151.9 -274.62)"/></svg>