<?xml version="1.0" encoding="utf-8"?>
<!-- Generator: Adobe Illustrator 24.2.0, SVG Export Plug-In . SVG Version: 6.00 Build 0)  -->
<svg version="1.1" id="Layer_1" xmlns="http://www.w3.org/2000/svg" xmlns:xlink="http://www.w3.org/1999/xlink" x="0px" y="0px"
	 viewBox="0 0 552.8 552.8" style="enable-background:new 0 0 552.8 552.8;" xml:space="preserve">
<style type="text/css">
	.st0{fill:#C6C6C6;}
	.st1{clip-path:url(#SVGID_2_);fill:none;stroke:#000000;stroke-width:13;}
	.st2{clip-path:url(#SVGID_2_);fill:none;stroke:#000000;stroke-width:16;}
	.st3{clip-path:url(#SVGID_2_);fill:none;stroke:#000000;stroke-width:9;}
</style>
<polygon class="st0" points="6.5,13 6.5,539.8 6.5,546.3 13,546.3 539.8,546.3 546.3,546.3 546.3,539.8 546.3,13 546.3,6.5 
	539.8,6.5 13,6.5 6.5,6.5 "/>
<g>
	<defs>
		<rect id="SVGID_1_" width="552.8" height="552.8"/>
	</defs>
	<clipPath id="SVGID_2_">
		<use xlink:href="#SVGID_1_"  style="overflow:visible;"/>
	</clipPath>
	<polygon class="st1" points="6.5,13 6.5,539.8 6.5,546.3 13,546.3 539.8,546.3 546.3,546.3 546.3,539.8 546.3,13 546.3,6.5 
		539.8,6.5 13,6.5 6.5,6.5 	"/>
	
		<ellipse transform="matrix(3.836204e-03 -1 1 3.836204e-03 -0.5427 282.9197)" class="st2" cx="141.7" cy="141.7" rx="123.1" ry="123.1"/>
	
		<ellipse transform="matrix(1.277127e-03 -1 1 1.277127e-03 -269.472 552.2309)" class="st2" cx="141.7" cy="411" rx="123.1" ry="123.1"/>
	
		<ellipse transform="matrix(5.069476e-03 -1 1 5.069476e-03 -2.0784 819.9583)" class="st2" cx="411" cy="411" rx="123.1" ry="123.1"/>
	<path class="st2" d="M411,21.5c-41.7,83.5-83.5,166.9-125.2,250.4h129h121.4C494.5,188.4,452.8,104.9,411,21.5z"/>
	<line class="st2" x1="541.2" y1="411" x2="411.8" y2="411"/>
	<line class="st3" x1="276.4" y1="1.4" x2="276.4" y2="551.3"/>
	<line class="st3" x1="551.3" y1="276.4" x2="1.4" y2="276.4"/>
</g>
</svg>
